<svg width="21" height="21" viewBox="0 0 21 21" fill="none" xmlns="http://www.w3.org/2000/svg">
<path d="M8.64931 9.14287L6.07615 10.4598C5.20312 10.909 4.623 10.6231 1.83732 10.0872L1.3147 10.3526L3.57767 11.7359L3.1239 11.9707C3.00902 12.0268 3.07221 12.18 3.19857 12.1646C6.55862 11.7716 8.14961 11.2101 8.14961 11.2101L15.5417 7.41761C15.5417 7.41761 18.0919 6.11092 17.0753 5.77914C15.9495 5.41163 13.6233 6.58049 13.6233 6.58049L10.7745 8.04038L6.05898 6.57034L5.77179 6.71832L9.149 9.48488" fill="black"/>
<path d="M8.64931 9.14287L6.07615 10.4598C5.20312 10.909 4.623 10.6231 1.83732 10.0872L1.3147 10.3526L3.57767 11.7359L3.1239 11.9707C3.00902 12.0268 3.07221 12.18 3.19857 12.1646C6.55862 11.7716 8.14961 11.2101 8.14961 11.2101L15.5417 7.41761C15.5417 7.41761 18.0919 6.11092 17.0753 5.77914C15.9495 5.41163 13.6233 6.58049 13.6233 6.58049L10.7745 8.04038L6.05898 6.57034L5.77179 6.71832L9.149 9.48488" stroke="black" stroke-width="0.5" stroke-miterlimit="10" stroke-linecap="round" stroke-linejoin="round"/>
<path d="M11.9722 9.18402L11.7883 10.649L11.3518 10.9501L10.295 10.0671" fill="black"/>
<path d="M11.9722 9.18402L11.7883 10.649L11.3518 10.9501L10.295 10.0671" stroke="black" stroke-miterlimit="10" stroke-linecap="round" stroke-linejoin="round"/>
<path d="M1.64786 16.7076H10.7631" stroke="black" stroke-miterlimit="10" stroke-linecap="round" stroke-linejoin="round"/>
</svg>
