<svg width="201" height="26" viewBox="0 0 201 26" fill="none" xmlns="http://www.w3.org/2000/svg">
<circle cx="4.8147" cy="20.2076" r="4.5" fill="black"/>
<line x1="10.8147" y1="20.2076" x2="189.815" y2="20.2076" stroke="black" stroke-linecap="round" stroke-dasharray="4 4"/>
<path d="M11.4456 21.5971L11.633 22.0491L12.1049 22.1785C13.3092 22.5086 15.2575 23.0036 17.203 23.4197C19.119 23.8294 21.1303 24.1846 22.4112 24.1961C24.7507 24.217 32.0415 24.2048 35.389 24.1961L35.437 24.196L35.4848 24.1913C35.9859 24.1417 36.7659 24.0063 37.539 23.7545C38.2454 23.5244 39.1097 23.1462 39.6871 22.5156C39.9155 22.3224 40.1855 21.9991 40.2809 21.5492C40.4149 20.917 40.1493 20.3247 39.6349 19.8973L39.0395 20.6138L39.6349 19.8973C38.7644 19.174 37.6945 18.5483 35.503 18.291L35.4449 18.2842H35.3864H29.7494L18.5302 12.3245L18.3102 12.2076H18.0611H15.0903H12.565L14.4056 13.9365L19.0342 18.2842H15.7084L12.7763 15.5301L12.4877 15.259H12.0917H10.3147H8.8175L9.39096 16.642L11.4456 21.5971Z" fill="black" stroke="white" stroke-width="2"/>
<circle cx="195.815" cy="20.2076" r="4.5" fill="black"/>
</svg>
